<?xml version="1.0" encoding="utf-8"?>
<!-- Generator: Adobe Illustrator 24.0.3, SVG Export Plug-In . SVG Version: 6.00 Build 0)  -->
<svg version="1.1" id="Layer_1" xmlns="http://www.w3.org/2000/svg" xmlns:xlink="http://www.w3.org/1999/xlink" x="0px" y="0px"
	 viewBox="0 0 3483.1 656.2" style="enable-background:new 0 0 3483.1 656.2;" xml:space="preserve">
<style type="text/css">
	.st0{fill:url(#SVGID_1_);}
	.st1{opacity:0.6;fill:url(#SVGID_2_);}
	.st2{opacity:0.5;}
	.st3{opacity:0.3;fill:url(#SVGID_3_);}
	.st4{fill:#FFFFFF;}
	.st5{font-family:'Poppins-SemiBold';}
	.st6{font-size:181.714px;}
	.st7{fill:url(#SVGID_4_);}
	.st8{opacity:0.6;fill:url(#SVGID_5_);}
	.st9{opacity:0.3;fill:url(#SVGID_6_);}
	.st10{fill:url(#SVGID_7_);}
	.st11{opacity:0.6;fill:url(#SVGID_8_);}
	.st12{opacity:0.3;fill:url(#SVGID_9_);}
</style>
<g>
	<linearGradient id="SVGID_1_" gradientUnits="userSpaceOnUse" x1="1741.5342" y1="-9.094947e-13" x2="1741.5342" y2="656.245">
		<stop  offset="6.716421e-02" style="stop-color:#1A9DE8"/>
		<stop  offset="0.1616" style="stop-color:#1993DF"/>
		<stop  offset="0.6357" style="stop-color:#1567B8"/>
		<stop  offset="0.8756" style="stop-color:#1456A9"/>
	</linearGradient>
	<path class="st0" d="M3384.2,656.2H98.9C44.3,656.2,0,612,0,557.3V98.9C0,44.3,44.3,0,98.9,0h3285.3c54.6,0,98.9,44.3,98.9,98.9
		v458.4C3483.1,612,3438.8,656.2,3384.2,656.2z"/>
	<linearGradient id="SVGID_2_" gradientUnits="userSpaceOnUse" x1="1741.5342" y1="-9.094947e-13" x2="1741.5342" y2="656.245">
		<stop  offset="5.223890e-02" style="stop-color:#FFFFFF"/>
		<stop  offset="0.4601" style="stop-color:#FDFDFD"/>
		<stop  offset="0.607" style="stop-color:#F6F6F6"/>
		<stop  offset="0.7117" style="stop-color:#EBEBEB"/>
		<stop  offset="0.7964" style="stop-color:#DADADA"/>
		<stop  offset="0.8681" style="stop-color:#C4C4C4"/>
		<stop  offset="0.9104" style="stop-color:#B3B3B3"/>
	</linearGradient>
	<path class="st1" d="M3384.2,14.5c46.6,0,84.4,37.9,84.4,84.4v458.4c0,46.5-37.9,84.4-84.4,84.4H98.9c-46.5,0-84.4-37.9-84.4-84.4
		V98.9c0-46.5,37.9-84.4,84.4-84.4H3384.2L3384.2,14.5z M3384.2,0H98.9C44.3,0,0,44.3,0,98.9v458.4c0,54.6,44.3,98.9,98.9,98.9
		h3285.3c54.6,0,98.9-44.3,98.9-98.9V98.9C3483.1,44.3,3438.8,0,3384.2,0L3384.2,0z"/>
	<path class="st2" d="M3384.2,20.5c43.2,0,78.4,35.2,78.4,78.4v458.4c0,43.2-35.2,78.4-78.4,78.4H98.9c-43.2,0-78.4-35.2-78.4-78.4
		V98.9c0-43.2,35.2-78.4,78.4-78.4H3384.2L3384.2,20.5z M3384.2,14.5H98.9c-46.5,0-84.4,37.9-84.4,84.4v458.4
		c0,46.6,37.9,84.4,84.4,84.4h3285.3c46.5,0,84.4-37.9,84.4-84.4V98.9C3468.6,52.4,3430.7,14.5,3384.2,14.5L3384.2,14.5z"/>
	<linearGradient id="SVGID_3_" gradientUnits="userSpaceOnUse" x1="1741.5342" y1="38.6349" x2="1741.5342" y2="617.6101">
		<stop  offset="0" style="stop-color:#FFFFFF"/>
		<stop  offset="3.819015e-02" style="stop-color:#BBBBBB"/>
		<stop  offset="7.936066e-02" style="stop-color:#797979"/>
		<stop  offset="0.1168" style="stop-color:#454545"/>
		<stop  offset="0.1491" style="stop-color:#1F1F1F"/>
		<stop  offset="0.175" style="stop-color:#080808"/>
		<stop  offset="0.1913" style="stop-color:#000000"/>
		<stop  offset="0.8261" style="stop-color:#000000"/>
		<stop  offset="0.8516" style="stop-color:#101010"/>
		<stop  offset="0.9011" style="stop-color:#383838"/>
		<stop  offset="0.969" style="stop-color:#797979"/>
		<stop  offset="1" style="stop-color:#999999"/>
	</linearGradient>
	<path class="st3" d="M98.9,617.6c-33.2,0-60.3-27-60.3-60.3V98.9c0-33.2,27-60.3,60.3-60.3h3285.3c33.2,0,60.3,27,60.3,60.3v458.4
		c0,33.2-27,60.3-60.3,60.3H98.9z"/>
	<text transform="matrix(1 0 0 1 1109.2686 382.5274)" class="st4 st5 st6">DINE-IN MENU</text>
</g>
</svg>
