<?xml version="1.0" encoding="utf-8"?>
<!-- Generator: Adobe Illustrator 24.0.3, SVG Export Plug-In . SVG Version: 6.00 Build 0)  -->
<svg version="1.1" id="Layer_1" xmlns="http://www.w3.org/2000/svg" xmlns:xlink="http://www.w3.org/1999/xlink" x="0px" y="0px"
	 viewBox="0 0 511.1 511.2" style="enable-background:new 0 0 511.1 511.2;" xml:space="preserve">
<style type="text/css">
	.st0{fill:#FFFFFF;}
</style>
<g>
	<g>
		<path class="st0" d="M0,83.1C3.3,75.4,5.5,67,10.1,60.2c10.7-16.1,26.7-23.6,45.9-23.6c71.8-0.1,143.7-0.1,215.5,0
			c14.3,0,23.2,10.6,19.9,23.3c-1.9,7.4-8.5,12.8-16.2,13.3c-2.3,0.1-4.7,0.1-7,0.1c-69.5,0-139,0-208.6,0c-3,0-6,0.2-8.9,0.7
			c-7.8,1.5-13.4,8.2-13.9,16.1c-0.1,1.5-0.1,3-0.1,4.5c0,119.6,0,239.2,0,358.7c0,11.3,4.1,17.9,13,20.4c2.2,0.6,4.6,0.7,6.9,0.7
			c108.3,0,216.5,0,324.8,0c12.9,0,19.9-7.1,19.9-20.2c0-59.4,0-118.8,0-178.1c0-12.2,7.5-20.4,18.4-20.4c9.6,0,17.5,7.2,18.3,16.8
			c0.1,1.7,0.1,3.3,0.1,5c0,58.7-0.4,117.4,0.1,176.1c0.3,32.2-23.1,53.8-45.8,56.8c-0.4,0.1-0.8,0.5-1.2,0.8
			c-114.8,0-229.6,0-344.3,0c-0.7-0.3-1.5-0.8-2.2-0.9c-21-4.4-34.9-16.9-42.1-37c-1-2.9-1.7-6-2.6-8.9C0,337.2,0,210.2,0,83.1z"/>
		<path class="st0" d="M511.1,69.8c-0.3,20.1-7.5,36.8-21.3,50.6c-79.3,79.4-158.7,158.8-238.2,238c-3,3-7.2,5.5-11.3,6.9
			c-34.7,11.8-69.4,23.3-104.2,34.8c-7.7,2.6-15.1,2.5-21.3-3.7c-6.2-6.2-6.3-13.5-3.7-21.3c11.6-34.7,23.1-69.5,34.9-104.1
			c1.5-4.4,4.2-8.8,7.5-12.1c78.8-79,157.7-157.9,236.6-236.7c28.5-28.4,70-29.7,99-2.9C503.8,33,510.9,50.3,511.1,69.8z M157,353.9
			c2.1-0.5,3.2-0.7,4.3-1.1c21.1-7,42.1-14,63.1-21.2c2.4-0.8,4.6-2.5,6.5-4.3c77-77,154-154,231-231c1.9-1.9,3.7-3.8,5.3-5.9
			c7.9-10.4,9.4-21.9,4.1-33.7c-5.4-12.1-15.1-18.6-28.4-19.6c-11.5-0.8-20.3,4.4-28.2,12.3C341.3,123,267.9,196.6,194.1,269.8
			c-9.6,9.5-16.5,19.7-20.2,32.7C169,319.5,162.9,336.1,157,353.9z"/>
	</g>
</g>
</svg>
