<?xml version="1.0" encoding="utf-8"?>
<!-- Generator: Adobe Illustrator 24.0.3, SVG Export Plug-In . SVG Version: 6.00 Build 0)  -->
<svg version="1.1" id="Layer_1" xmlns="http://www.w3.org/2000/svg" xmlns:xlink="http://www.w3.org/1999/xlink" x="0px" y="0px"
	 viewBox="0 0 447.1 407.7" style="enable-background:new 0 0 447.1 407.7;" xml:space="preserve">
<style type="text/css">
	.st0{fill:#FFFFFF;}
</style>
<g>
	<g>
		<path class="st0" d="M239.5,120.5c0,2.3,0,4.3,0,6.2c0,71.3,0,192.6,0,264c0,8-3.9,13.6-10.9,16c-6.5,2.2-13.8,0.3-17.6-5.6
			c-2-3.1-3.2-7.4-3.2-11.1c-0.2-71.2-0.1-192.3-0.1-263.5c0-2,0-4,0-5.9c-35.7-11.2-50.3-44.2-43.7-73.6
			c6.2-27.7,32.6-48.1,60.8-47.1c30.5,1,55.3,22.4,59.5,52.2C288.6,83.7,270,111.4,239.5,120.5z M223.5,90.4
			c16.1,0,28.9-12.6,29-28.5c0.1-16.2-12.7-29.4-28.7-29.6c-16-0.2-29.3,13-29.3,29C194.5,77.7,207.2,90.4,223.5,90.4z"/>
		<path class="st0" d="M45,170c0-11.3,0-72.4,0-83.5c0-23.3,0-46.6,0-69.8c0-8.2,5.8-14.9,13.5-16.1c7.6-1.2,15.1,3.3,17.6,10.8
			c0.8,2.6,0.9,5.5,0.9,8.3c0.1,31.8,0.1,113.5,0,145.3c0,3.6,0.7,5.4,4.5,6.7c24.3,8.3,40.4,31.1,40.7,57
			c0.3,25.6-15.7,48.8-40,57.4c-4.3,1.5-5.3,3.5-5.2,7.8c0.2,32.3,0.1,64.5,0.1,96.8c0,9.4-6.2,16.4-14.7,17
			C52.7,408.3,45,401,45,391.2c-0.1-28.9,0-57.9,0-86.8c0-5,1.6-10.9-0.5-14.7c-2-3.5-8.1-4.5-12.3-6.9
			c-23-13.2-34.3-33.3-31.8-59.6c2.4-25.4,16.9-42.6,40.7-51.8C42.3,170.8,43.5,170.5,45,170z M90.1,229.2
			c0.1-16.1-12.5-29.1-28.4-29.2c-16.4-0.1-29.7,12.9-29.7,29.1c0,15.7,13.1,28.9,28.9,28.9C77.2,258.1,90,245.5,90.1,229.2z"/>
		<path class="st0" d="M402.2,342.2c0,16.7,0.1,33.2,0,49.6c-0.1,7.8-6,14.4-13.5,15.6c-7.6,1.2-15.1-3.3-17.6-10.8
			c-0.8-2.3-0.8-4.9-0.8-7.3c-0.1-14.3-0.1-28.6,0-42.9c0-3.2-0.9-4.6-3.9-5.7c-25.1-8.7-41.3-31.3-41.3-57.5
			c0-26,16-48.8,40.8-57.3c3.6-1.2,4.4-3,4.4-6.4c-0.1-50.6-0.1-151.1,0-201.7c0-9.7,5.7-16.6,14.2-17.5c9.5-1,17.6,6.2,17.8,15.9
			c0.1,7.6,0,15.3,0,22.9c0,43.4,0,136.8,0,180.2c0,2.7-0.2,4.7,3.4,6c25.9,9,41.6,31.4,41.5,58.3c-0.1,26.1-16.2,48.2-41.8,57.2
			C404.4,341.3,403.5,341.7,402.2,342.2z M386.4,312.1c16.2,0,29-13,28.9-29.3c-0.1-15.7-13.3-28.8-29.1-28.8
			c-16.1,0-29,13.1-29,29.3C357.2,299.6,369.9,312.1,386.4,312.1z"/>
	</g>
</g>
</svg>
