<?xml version="1.0" encoding="utf-8"?>
<!-- Generator: Adobe Illustrator 24.0.3, SVG Export Plug-In . SVG Version: 6.00 Build 0)  -->
<svg version="1.1" id="Layer_1" xmlns="http://www.w3.org/2000/svg" xmlns:xlink="http://www.w3.org/1999/xlink" x="0px" y="0px"
	 viewBox="0 0 447.2 447.5" style="enable-background:new 0 0 447.2 447.5;" xml:space="preserve">
<style type="text/css">
	.st0{fill:#FFFFFF;}
</style>
<path class="st0" d="M63.9,239.8c-15.3,0-30,0-44.8,0c-2.5,0-5-0.1-7.4-0.7c-11.3-3.2-15.4-16.6-7.8-25.6c1.1-1.3,2.3-2.4,3.5-3.6
	c67.5-67.5,135-135,202.5-202.6c9.7-9.7,17.8-9.8,27.4-0.1c67.6,67.6,135.3,135.3,202.9,202.9c0.7,0.7,1.4,1.4,2.1,2.1
	c4.9,5.2,6.4,11.3,3.5,17.9c-2.8,6.4-8,9.6-15,9.7c-13.8,0.1-27.6,0-41.4,0c-1.8,0-3.6,0-6,0c0,2.3,0,4.2,0,6.2
	c0,50.1,0,100.2,0,150.2c0,31.1-20.1,51.3-51.1,51.3c-19.1,0-38.3,0-57.4,0c-13.3,0-19.3-5.9-19.3-19.1c0-30.1,0-60.2,0-90.3
	c0-12.2-6.2-18.4-18.4-18.4c-8.6,0-17.3,0-25.9,0c-13.7,0-19.5,5.7-19.5,19.3c0,29.9,0,59.9,0,89.8c0,12.6-6.1,18.7-18.7,18.7
	c-19.8,0-39.6,0-59.4,0c-29-0.1-49.7-20.7-49.7-49.6c-0.1-50.4,0-100.8,0-151.2C63.9,244.6,63.9,242.6,63.9,239.8z"/>
</svg>
