<?xml version="1.0" encoding="utf-8"?>
<!-- Generator: Adobe Illustrator 24.0.3, SVG Export Plug-In . SVG Version: 6.00 Build 0)  -->
<svg version="1.1" id="Layer_1" xmlns="http://www.w3.org/2000/svg" xmlns:xlink="http://www.w3.org/1999/xlink" x="0px" y="0px"
	 viewBox="0 0 431.1 511" style="enable-background:new 0 0 431.1 511;" xml:space="preserve">
<style type="text/css">
	.st0{fill:#FFFFFF;}
</style>
<path class="st0" d="M76,511c-11.7-4-16.1-12.2-16.1-24.4C60.1,372.2,0,257.7,0,143.3c0-16,7.5-23.5,23.5-23.5c18.9,0,37.9,0,57.2,0
	c5.7-39.7,24.3-71.5,56.8-94.8c25.4-18.1,53.9-26.4,85-24.8c67.1,3.4,120.1,54.7,128.2,119.6c1.7,0,3.5,0,5.3,0
	c18.1,0,36.3-0.1,54.4,0c12.3,0,20.8,8.4,20.8,20.6c0.1,63.4-29.9,126.7-30,190.1c0,12.1-8.8,20.9-20.2,20.8
	c-11.2-0.1-19.6-9-19.7-20.8c0-54.7,30-109.4,30-164.2c0-2,0-4,0-6.3c-13.3,0-26.3,0-39.9,0c0,1.8,0,3.6,0,5.4c0,17.6,0,35.3,0,52.9
	c0,12.3-8.4,21.1-19.8,21.2c-11.6,0.1-20.1-8.9-20.1-21.4c0-19.3,0-38.5,0-58.1c-63.9,0-127.5,0-191.6,0c0,1.9,0,3.6,0,5.4
	c0,17.6,0,35.3,0,52.9c0,12.2-8.4,21.1-19.8,21.2c-11.6,0.1-20.1-8.9-20.1-21.4c0-17.5,0-34.9,0-52.4c0-1.8,0-3.6,0-5.7
	c-13.4,0-26.4,0-39.7,0c0,103.5,60,206.9,60,311.1c1.9,0,3.8,0,5.7,0c68,0,76.1,0,144.1,0c15.7,0,25.6,14,19.9,27.8
	c-2.7,6.5-8.1,9.8-14.3,12.1C175.7,511,155.8,511,76,511z M121.5,119.4c63,0,125.5,0,188.1,0C304.3,81,268.3,39.6,214.8,40
	C162,40.4,126.5,81.7,121.5,119.4z"/>
<path class="st0" d="M367.3,511c-11.9-4-16.9-12.5-16-24.9c0.3-4.8,0.1-9.6,0.1-15c-6.2,0-12.1,0-18.1,0c-12.9,0-21.9-8.4-21.8-20.1
	c0.1-11.6,9-19.7,21.7-19.8c5.8,0,11.6,0,18.2,0c0-6.9-0.2-13.6,0-20.4c0.4-13.8,13.9-23,26.7-18.3c7.7,2.8,12.9,9.9,13.1,18.3
	c0.2,6.6,0,13.2,0,20.4c6.5,0,12.6,0,18.7,0c12.2,0.1,21.1,8.4,21.2,19.8c0.1,11.6-8.8,20.1-21.3,20.1c-6,0-11.9,0-18.6,0
	c0,5.2-0.3,10.1,0.1,15c0.9,12.4-4.1,20.8-16,24.9C372.6,511,369.9,511,367.3,511z"/>
</svg>
