<?xml version="1.0" encoding="utf-8"?>
<!-- Generator: Adobe Illustrator 24.0.3, SVG Export Plug-In . SVG Version: 6.00 Build 0)  -->
<svg version="1.1" id="Layer_1" xmlns="http://www.w3.org/2000/svg" xmlns:xlink="http://www.w3.org/1999/xlink" x="0px" y="0px"
	 viewBox="0 0 511.1 511" style="enable-background:new 0 0 511.1 511;" xml:space="preserve">
<style type="text/css">
	.st0{fill:#FFFFFF;}
</style>
<g>
	<path class="st0" d="M0,404.2c2.6-11.6,9.9-19.6,18.4-27.6c29.1-27.2,44.2-61.1,45.3-100.9c0.6-21.1,0.1-42.2,0.2-63.4
		C64.3,143.8,110.1,85.1,176,68.7c10.3-2.6,18.9,1.9,21.3,11c2.3,9-3.2,17.2-13.3,20c-45.9,12.9-74.5,42.5-85.5,88.8
		c-1.9,8-2.4,16.5-2.6,24.7c-0.4,18.1-0.2,36.3-0.1,54.4c0.3,54.8-19.8,100.6-60.6,137.3c-1.6,1.5-3.1,4.6-2.7,6.6
		c0.7,3.8,4.5,3.7,7.7,3.7c108.1,0,216.2,0,324.3,0c7,0,14,0,21,0c3.2,0,6.5,0.2,7.9-3.6c1.5-4-1.5-5.7-3.9-7.8
		c-17.4-15.4-31.3-33.4-41.5-54.4c-4.6-9.5-2.1-18.9,6.2-23.1c8.5-4.2,17.5-0.8,22.2,8.8c9,18.1,21.1,33.7,36.6,46.8
		c11.5,9.8,15.6,26.1,10.5,40.4c-5.2,14.5-18.7,24.6-34.2,24.7c-30.8,0.2-61.5,0.2-92.3,0c-4.3,0-6.2,1-7.4,5.4
		c-9.7,35.2-41.3,58.8-77.7,58.6c-35.7-0.3-67.1-24.8-76.4-59.7c-0.3-1.3-0.7-2.5-1.2-4.1c-6.1,0-12.3,0-18.4,0
		c-25.3,0-50.6,0-75.8,0c-20.7,0-33.7-9.9-39.4-29.7c-0.1-0.4-0.5-0.8-0.8-1.2C0,412.2,0,408.2,0,404.2z M257.3,447.4
		c-29.6,0-59.2,0-88.9,0c4.3,17.6,24.7,31.8,45,31.6C233.3,478.9,253.7,464.3,257.3,447.4z"/>
	<path class="st0" d="M384.2,0c10.5,2.3,21.3,3.8,31.4,7.1c59.5,19.2,99.1,77.4,95.1,139.3c-4.1,63.3-49.8,115.7-111.4,127.9
		c-77,15.2-151.3-36.9-163.7-114.8C223.5,82.3,279.9,8.9,357.5,0.9c1.3-0.1,2.6-0.6,3.8-0.9C368.9,0,376.6,0,384.2,0z M372.7,244.8
		c58.7-0.1,106.3-47.7,106.4-106.2c0-58.8-47.8-106.7-106.5-106.6C313.7,32,266.1,79.9,266.3,138.7
		C266.4,197.5,314,244.8,372.7,244.8z"/>
	<path class="st0" d="M362,117c-4.4,0-7.9,0.1-11.3,0c-8.3-0.4-14.9-6.8-15.3-14.8c-0.5-8.2,5-15.9,13.3-16.5
		c10.6-0.8,21.3-0.7,31.8,0c7.9,0.5,13.3,7.2,13.3,15.5c0.2,28.4,0.2,56.8,0,85.3c-0.1,9.1-7.4,15.9-15.9,15.9
		c-8.8,0-15.8-7.1-15.8-16.4c-0.1-20.9,0-41.9,0-62.8C362,121.3,362,119.5,362,117z"/>
</g>
</svg>
